# xmcd CD database file
#
# Track frame offsets:
#	150
#	14859
#	43321
#	79139
#	91289
#	143704
#	174070
#	204305
#
# Disc length: 3203 seconds
#
# Revision: 0
# Processed by: cddbd v1.5.1PL2 Copyright (c) Steve Scherf et al.
# Submitted via: CDex 1.50
#
DISCID=640c8108
DTITLE=Double jeu - Yellowlandscape
DYEAR=2002
DGENRE=Jazz
TTITLE0=Délétère
TTITLE1=Mantrax
TTITLE2=the slide effect
TTITLE3=Waves
TTITLE4=#5
TTITLE5=Miasme
TTITLE6=Multiphonics
TTITLE7=Gymkhana
EXTD=YEAR: 2002
EXTT0=
EXTT1=
EXTT2=
EXTT3=
EXTT4=
EXTT5=
EXTT6=
EXTT7=
PLAYORDER=
